<svg version="1.1" xmlns="http://www.w3.org/2000/svg" xmlns:xlink="http://www.w3.org/1999/xlink" x="0px" y="0px" width="82.8px" height="82.9px" viewBox="0 0 82.8 82.9" style="overflow:visible;enable-background:new 0 0 82.8 82.9;" xml:space="preserve"> <path fill="orange" d="M78.1,6.8c0-1-0.7-1.7-1.7-1.7C71.1,4.7,65.9,5,60.8,6c-7.7,1.5-14.8,4.5-21,9.4c-7,5.5-12.7,12.1-16.9,20 c-0.3,0.5-0.3,0.8,0.2,1.2c7.7,7.7,15.5,15.4,23.2,23.2c0.2,0.1,0.2,0.4,0.4,0.6c0.1,0,0.1-0.1,0.2-0.1c0.1,0,0.2-0.1,0.3-0.1 C55,56.3,61.5,50.7,67,43.9c4-4.9,6.9-10.5,8.7-16.6C77.7,20.6,78.4,13.7,78.1,6.8z M54.3,37.2c-5.1,0-9.2-4.1-9.2-9.2 c0-5.1,4.1-9.2,9.2-9.2c5.1,0,9.2,4.1,9.2,9.2C63.5,33.1,59.4,37.2,54.3,37.2z"></path> <path fill="#202128" d="M82.7,6.1c-0.2-3.2-2.8-5.8-6-6c-4.2-0.2-8.3,0-12.5,0.5c-5.5,0.7-10.9,2.1-16.1,4.3c-5,2.1-9.5,5.1-13.6,8.5 c-2.9,2.5-5.6,5.2-8.1,8.1c-0.2,0.3-0.6,0.5-0.9,0.5c-3.9,0.3-7.8,0.6-11.7,0.9c-1.9,0.2-3.5,1-4.6,2.6c-0.8,1.3-1.7,2.5-2.5,3.8 c-2,2.9-4,5.9-5.9,8.9c-1.9,2.9-0.4,6.3,3,6.9c1.8,0.4,3.7,0.6,5.5,0.9c1.6,0.2,3.1,0.5,4.6,0.7c0,0.1,0,0.2,0,0.2 c0,0.1-0.1,0.3-0.1,0.5c-0.3,2,0.3,3.8,1.7,5.3c4.9,4.9,9.7,9.8,14.6,14.6c0.9,0.9,2,1.5,3.2,1.6c0.9,0.1,1.8,0,2.8,0 c0.1,0.3,0.1,0.5,0.1,0.8c0.5,3.1,1,6.2,1.5,9.3c0.6,3.5,4.1,5,7,3.1c4.1-2.7,8.3-5.4,12.4-8.2c1.7-1.2,2.6-2.8,2.8-4.8 c0.3-3.7,0.6-7.5,0.8-11.2c0.1-0.8,0.3-1.2,0.9-1.7c3.4-2.8,6.4-6,9.1-9.4c4.4-5.4,7.5-11.5,9.5-18.2C82.3,21.2,83.1,13.7,82.7,6.1z M15.1,42c-3.3-0.5-6.6-1-10.1-1.6c0.2-0.3,0.3-0.4,0.4-0.6c2.4-3.6,4.9-7.3,7.3-11c0.5-0.7,1.1-1,2-1.1c2.4-0.1,4.7-0.3,7.1-0.5 h0.4C19.1,31.8,16.7,36.7,15.1,42z M37,63.7c-0.7,0.2-1.4,0.2-2.1,0.4c-0.8,0.1-1.3-0.1-1.8-0.6c-2-2-4.1-4.1-6.1-6.1 c-2.5-2.5-5-5.1-7.6-7.6c-0.6-0.5-0.9-1.2-0.7-2c0.6-2.2,1.1-4.5,1.7-6.8c7.2,7.2,14.3,14.2,21.4,21.4C40.2,62.8,38.6,63.3,37,63.7z M55.4,63.9c-0.1,1.5-0.2,2.9-0.3,4.4c0,0.6-0.3,1.1-0.8,1.5c-3.9,2.6-7.8,5.1-11.7,7.7c0,0-0.1,0-0.2,0.1c-0.5-3.3-1-6.5-1.7-9.9 c5.3-1.6,10.2-4,14.9-7.1C55.6,61.8,55.5,62.8,55.4,63.9z M75.7,27.3C73.9,33.4,71,39,67,43.9c-5.5,6.8-12,12.4-19.8,16.3 c-0.1,0-0.2,0.1-0.3,0.1c-0.1,0-0.1,0.1-0.2,0.1c-0.2-0.2-0.2-0.5-0.4-0.6C38.6,52,30.8,44.3,23.1,36.6c-0.5-0.4-0.5-0.7-0.2-1.2 c4.2-7.9,9.9-14.5,16.9-20c6.2-4.9,13.3-7.9,21-9.4c5.1-1,10.3-1.3,15.6-0.9c1,0,1.7,0.7,1.7,1.7C78.4,13.7,77.7,20.6,75.7,27.3z M2.4,82.9c-0.9-0.1-1.6-0.5-2.1-1.3c-0.5-0.9-0.4-1.8,0.3-2.6c0.1-0.2,0.3-0.3,0.4-0.5c4.9-4.9,9.8-9.8,14.7-14.8 c0.7-0.7,1.5-1.1,2.5-0.9c1.6,0.4,2.4,2.2,1.5,3.6c-0.2,0.3-0.4,0.5-0.6,0.7c-4.9,5-9.8,9.9-14.8,14.8C3.8,82.5,3.2,82.8,2.4,82.9z M0.8,64.1c2.6-2.6,5.2-5.2,7.8-7.8c0.8-0.8,1.9-1,2.8-0.6c0.9,0.4,1.6,1.4,1.4,2.4c-0.1,0.5-0.3,1.1-0.7,1.5 C9.4,62.3,6.8,65,4,67.7c-0.7,0.7-1.6,0.9-2.6,0.4C0.5,67.7,0,66.9,0,65.9C0.1,65.1,0.4,64.5,0.8,64.1z M17.2,82.8 c-1.3-0.1-2-0.6-2.4-1.5c-0.4-1-0.2-1.9,0.5-2.6c1.7-1.7,3.4-3.4,5.1-5.1c1-1,1.9-1.9,2.9-2.9c0.8-0.8,1.9-0.8,2.9-0.2 c0.9,0.5,1.3,1.7,1,2.7c-0.1,0.4-0.4,0.9-0.8,1.2c-2.5,2.6-5.1,5.1-7.6,7.6C18.3,82.5,17.7,82.8,17.2,82.8z M54.3,13.8 c-7.8,0-14.2,6.4-14.2,14.2c0,7.8,6.4,14.2,14.2,14.2c7.8,0,14.2-6.4,14.2-14.2C68.5,20.1,62.2,13.8,54.3,13.8z M54.3,37.2 c-5.1,0-9.2-4.1-9.2-9.2c0-5.1,4.1-9.2,9.2-9.2c5.1,0,9.2,4.1,9.2,9.2C63.5,33.1,59.4,37.2,54.3,37.2z"></path> </svg>