<svg version="1.1" xmlns="http://www.w3.org/2000/svg" xmlns:xlink="http://www.w3.org/1999/xlink" x="0px" y="0px" width="84px" height="61px" viewBox="0 0 84 61" style="overflow:visible;enable-background:new 0 0 84 61;" xml:space="preserve"> <path fill="#202128" d="M83.1,22.8c-4.2-4.2-8.4-8.4-12.7-12.6c-0.6-0.6-1.4-1-2.3-1c-3.2,0-6.5,0-9.7,0h-0.7c0.1,0,0.1-0.1,0.2-0.1 c-0.4-1.3-0.5-2.6-1.1-3.8C55.2,1.8,52.3,0,48.3,0c-13,0-26,0-39,0C8.7,0,7.9,0,7.2,0.2C2.9,1.2,0,4.8,0,9.2C0,15,0,20.9,0,26.7 C0,31.8,0,36.9,0,42c0,3.5,1.7,6.1,4.7,7.9c1.7,1,3.5,1.2,5.4,1.1c0.5,0,0.8,0.2,0.9,0.7c0.6,2.5,1.9,4.6,3.8,6.2 c3.5,3,7.5,3.9,11.9,2.4c4.2-1.4,6.9-4.3,8.1-8.6c0.1-0.5,0.4-0.7,0.9-0.7c4.2,0,8.4,0,12.6,0H49c0.1,0.1,0.1,0.1,0.1,0.2 c0.1,0.2,0.1,0.3,0.1,0.5c0.7,2.5,1.9,4.6,3.9,6.2c3.5,2.9,7.5,3.8,11.8,2.4c4.2-1.4,7-4.4,8.1-8.7c0.1-0.5,0.3-0.6,0.8-0.6 c2.5,0,5,0,7.5,0c0.3,0,0.7,0,1-0.1c1.2-0.4,1.7-1.2,1.7-2.7c0-7.7,0-15.4,0-23.1C84.1,24.3,83.7,23.5,83.1,22.8z M22.9,56 c-4,0-7.4-3.4-7.4-7.5s3.4-7.4,7.4-7.4c4.1,0,7.4,3.4,7.4,7.4C30.4,52.7,27,56.1,22.9,56z M52.8,39.2c0,0.2-0.1,0.5-0.2,0.6 c-1.8,1.7-2.9,3.9-3.5,6.2c0,0,0,0.1-0.1,0.1H35.2c-0.5-1.2-0.9-2.4-1.5-3.5c-2.4-4.4-7.3-6.9-12.3-6.2c-5,0.6-9.1,4.2-10.4,9.1 c-0.2,0.6-0.4,0.8-1,0.7c-0.5-0.1-1,0-1.5-0.1c-2.2-0.3-3.6-2-3.6-4.4c0-3.3,0-6.6,0-9.9V9.5c0-1.8,0.7-3.2,2.3-4 C7.8,5.2,8.6,5,9.3,5c13,0,26.1,0,39.1,0c2.6,0,4.4,1.8,4.4,4.4C52.8,19.2,52.8,29.2,52.8,39.2z M57.7,14.2c0.2,0,0.4,0,0.5,0 c2.9,0,5.8,0,8.7,0c0.2,0,0.6,0.1,0.7,0.2c2.6,2.6,5.2,5.1,7.8,7.7c0,0,0.1,0.1,0.2,0.2H57.7V14.2z M61.1,56c-4,0-7.4-3.4-7.4-7.4 c0-4.1,3.4-7.4,7.4-7.4c4.1,0,7.4,3.4,7.4,7.5C68.6,52.7,65.2,56.1,61.1,56z M79.1,46.2c-1.9,0-3.7,0-5.5,0 c-0.2,0-0.4-0.4-0.4-0.6c-0.7-2.6-2.1-4.9-4.2-6.5c-3.2-2.5-6.8-3.3-10.8-2.4c-0.1,0-0.2,0-0.4,0.1v-9.3h21.4L79.1,46.2L79.1,46.2 z"></path> <path fill="orange" d="M75.6,22.4H57.7v-8.2c0.2,0,0.4,0,0.5,0c2.9,0,5.8,0,8.7,0c0.2,0,0.6,0.1,0.7,0.2c2.6,2.6,5.2,5.1,7.8,7.7 C75.5,22.2,75.5,22.3,75.6,22.4z"></path> </svg>