<svg data-v-17a731bc="" xmlns="http://www.w3.org/2000/svg" viewBox="0 0 255.6 255.48" height="24px"><path fill="blue" data-v-17a731bc="" d="M744.9-31.21C744.88,39,687.63,96.6,618,96.55c-71.41,0-128.69-56.94-128.67-127.79s57.37-128,129-127.69C688.05-158.59,744.82-101.72,744.9-31.21ZM561.37-96.44c2-1.4,4.13-2.75,6.11-4.23a1.8,1.8,0,0,1,2.59,0c2,1.58,4.19,3,6.84,4.93-.88-2.71-1.41-4.79-2.23-6.75s-.61-3.33,1.41-4.47a69.65,69.65,0,0,0,5.83-4.2c-3.28,0-5.77-.06-8.25,0a2,2,0,0,1-2.3-1.64c-.71-2.48-1.59-4.91-2.59-8-1,3-1.86,5.41-2.55,7.86a2.07,2.07,0,0,1-2.47,1.75c-2.43-.12-4.88,0-8.08,0,2.69,2,4.69,3.54,6.79,5a1.79,1.79,0,0,1,.8,2.45c-.76,2.35-1.83,4.62-2.12,7.11-.1.09-.28.25-.27.27C561.07-96.11,561.23-96.24,561.37-96.44ZM708.94,21.68l.2.06-.23,0c0-2.38-1.08-4.47-1.85-6.62-.62-1.73-.48-2.85,1.21-3.87,2-1.21,3.83-2.72,6.27-4.49-3.32,0-5.89-.06-8.45,0a1.91,1.91,0,0,1-2.24-1.69c-.69-2.46-1.59-4.85-2.57-7.78-1,3-1.85,5.35-2.55,7.79a1.93,1.93,0,0,1-2.25,1.68c-2.54-.1-5.08,0-8.41,0,2.61,1.9,4.54,3.42,6.57,4.76,1.25.82,1.6,1.6,1,3.07-.89,2.27-1.51,4.64-2.45,7.62,2.53-1.81,4.56-3.11,6.39-4.64,1.28-1.07,2.19-.92,3.43,0C704.92,19.06,707,20.33,708.94,21.68Zm-183.2,0c1.74-.66,3-2,4.51-3,3.18-2.23,3.15-2.25,6.22,0,1.47,1.06,3,2.08,5,3.52-1-3.09-1.69-5.47-2.55-7.79a1.94,1.94,0,0,1,.9-2.68c2.09-1.42,4.1-3,6.14-4.46a37.38,37.38,0,0,0-7.76-.44A1.94,1.94,0,0,1,536,5.1c-.7-2.45-1.57-4.85-2.57-7.87-.87,2.66-1.69,4.74-2.2,6.89S529.77,7,527.6,6.78s-4.52,0-7.47,0c2.7,1.95,4.74,3.51,6.87,4.94a2,2,0,0,1,.85,2.68c-.75,2.43-2,4.73-2.08,7.35l-.17.15ZM519.3-22.69a37,37,0,0,0,6.11-4.2,1.94,1.94,0,0,1,2.79,0c2,1.58,4.13,3,6.75,4.9-1-3.08-1.73-5.45-2.58-7.78a2.12,2.12,0,0,1,1-2.91c2-1.35,4-2.86,5.94-4.3a26.92,26.92,0,0,0-7.3-.51c-1.66.1-2.35-.55-2.76-2.08-.6-2.25-1.44-4.44-2.42-7.39-1,3-1.85,5.24-2.47,7.52a2.2,2.2,0,0,1-2.6,1.95c-2.44-.12-4.88,0-7.32,0a30.72,30.72,0,0,0,5.92,4.87c1.24.79,1.34,1.57.9,2.86a38.42,38.42,0,0,0-2.08,6.88c-.26.13-.38.29-.1.52ZM624.61,68.57l.15.15-.2-.11a33.37,33.37,0,0,0-2.1-7.13,2.08,2.08,0,0,1,1-2.86c2.06-1.39,4-2.91,6-4.37a36.36,36.36,0,0,0-7.73-.48,1.94,1.94,0,0,1-2.29-1.66c-.69-2.45-1.6-4.85-2.6-7.79-.93,2.88-1.77,5.14-2.38,7.46a2.35,2.35,0,0,1-2.82,2c-2.4-.13-4.81,0-7.21,0a21.06,21.06,0,0,0,5.16,4.31c2,1.15,2.19,2.48,1.39,4.47A23,23,0,0,0,609.14,69c2.33-1.68,4.38-3.07,6.33-4.6a2,2,0,0,1,2.81,0C620.33,65.85,622.12,67.74,624.61,68.57Zm-7.75-205.36c-1,2.94-1.82,5.28-2.46,7.68a2.24,2.24,0,0,1-2.67,1.89c-2.44-.11-4.89,0-8.07,0,2.66,1.93,4.63,3.43,6.68,4.82a2.1,2.1,0,0,1,.95,2.88A35.32,35.32,0,0,0,609.1-112c2.28-1.66,4.28-3,6.15-4.51a2.15,2.15,0,0,1,3.2,0c1.85,1.52,3.86,2.85,5.81,4.25a27.83,27.83,0,0,0-1.79-7.24,2,2,0,0,1,.92-2.87c2.07-1.37,4-2.9,6-4.36a37,37,0,0,0-7.68-.45,2,2,0,0,1-2.29-1.7C618.74-131.39,617.85-133.81,616.86-136.79ZM696-37.48l-.13.53c1.79,1.32,3.52,2.72,5.39,3.91,1.56,1,2,2,1.31,3.87a26.52,26.52,0,0,0-2,7c2.35-1.7,4.47-3.14,6.5-4.72a1.74,1.74,0,0,1,2.57,0c2,1.57,4.12,3,6.8,4.94-1-3.1-1.66-5.54-2.54-7.9a1.9,1.9,0,0,1,.86-2.65c2.09-1.38,4.08-2.93,6.11-4.41a31.73,31.73,0,0,0-7.57-.49c-1.42.06-2-.48-2.45-1.82a37.66,37.66,0,0,0-2.64-7.35c-.85,2.64-1.67,5-2.35,7.37a2.11,2.11,0,0,1-2.46,1.81C700.94-37.56,698.48-37.48,696-37.48ZM557,56.49c2.38-1.71,4.36-2.9,6.06-4.4s2.75-1.2,4.25.06c1.7,1.45,3.6,2.66,6,4.39-1-2.95-1.56-5.18-2.4-7.33-.64-1.62-.43-2.64,1.12-3.64a29.14,29.14,0,0,0,5.84-4.51c-2.71,0-5-.11-7.19,0-1.77.12-2.62-.43-3.13-2.22a26.89,26.89,0,0,0-2.56-7,58.33,58.33,0,0,0-1.79,5.72c-.55,2.69-1.78,4-4.72,3.52a46.43,46.43,0,0,0-6.45-.06c2.66,1.94,4.62,3.46,6.68,4.84a2,2,0,0,1,.9,2.71C558.7,51,558,53.44,557,56.49Zm118.65-.23a30.92,30.92,0,0,0-2-6.81,2.25,2.25,0,0,1,1.05-3.09c2-1.34,4-2.86,6.52-4.71-3.16,0-5.62-.09-8.08,0a2.18,2.18,0,0,1-2.62-1.85c-.64-2.35-1.48-4.65-2.47-7.66-1,2.93-1.87,5.14-2.43,7.43-.42,1.72-1.27,2.19-3,2.08-2.37-.15-4.76,0-7.15,0,0,.72.49.8.77,1.05,2.08,1.87,5.79,2.71,6.24,5.31.42,2.44-1.42,5.27-2.28,8a1.83,1.83,0,0,0,1.8-.42c.8-.6,1.61-1.18,2.42-1.76,3.56-2.6,3.54-2.58,7-.1A13.21,13.21,0,0,0,675.61,56.26Zm-21.3-167.41-.17.51c2,1.46,4,3,6,4.35a1.91,1.91,0,0,1,.88,2.64c-.87,2.4-1.58,4.87-2.56,7.93,2.68-1.93,4.8-3.38,6.82-5a1.78,1.78,0,0,1,2.59,0c2,1.58,4.2,3,6.8,4.9a52.16,52.16,0,0,0-2-6c-1.2-2.54-.84-4.26,1.75-5.64a46.56,46.56,0,0,0,5.16-3.75c-3.11,0-5.52-.09-7.92,0a2.21,2.21,0,0,1-2.65-1.87c-.64-2.35-1.48-4.65-2.23-7a36.23,36.23,0,0,0-2.82,7.18,2,2,0,0,1-2.28,1.66C659.26-111.22,656.79-111.15,654.31-111.15ZM534.48-87.26c-.84,2.55-1.69,4.63-2.19,6.8s-1.46,3-3.74,2.81a23.34,23.34,0,0,0-6.83.2c2.32,1.69,4.28,3.22,6.34,4.6a1.94,1.94,0,0,1,.87,2.67,40,40,0,0,0-2.22,7.65c2.36-1.7,4.47-3.15,6.49-4.71a1.81,1.81,0,0,1,2.59,0c2,1.56,4.13,3,6.79,4.91-1-3-1.56-5.39-2.48-7.67-.59-1.49-.15-2.23,1-3,2-1.35,3.91-2.84,6.41-4.68-3.23,0-5.71-.06-8.18,0a1.93,1.93,0,0,1-2.29-1.65C536.38-81.87,535.46-84.35,534.48-87.26Zm174.12,25c-.93-2.91-1.53-5.24-2.42-7.44-.67-1.66-.21-2.56,1.19-3.47,1.91-1.23,3.7-2.66,5.54-4a27.2,27.2,0,0,0-7.24-.47c-1.65.1-2.34-.52-2.75-2.06-.61-2.31-1.47-4.55-2.45-7.5-1,3.07-1.83,5.33-2.47,7.63-.4,1.41-1,2-2.58,1.93-2.42-.15-4.85,0-7.27,0a35,35,0,0,0,5.93,4.86,1.93,1.93,0,0,1,.87,2.66c-.86,2.4-1.6,4.85-2.6,7.92,2.69-1.94,4.81-3.39,6.84-5a1.79,1.79,0,0,1,2.6,0C703.81-65.66,705.94-64.21,708.6-62.29Z" transform="translate(-489.3 158.93)" class="cls-1"></path> <path fill="orange" data-v-17a731bc="" d="M616.86-136.79c1,3,1.88,5.4,2.59,7.86a2,2,0,0,0,2.29,1.7,37,37,0,0,1,7.68.45c-2,1.46-4,3-6,4.36a2,2,0,0,0-.92,2.87,27.83,27.83,0,0,1,1.79,7.24c-2-1.4-4-2.73-5.81-4.25a2.15,2.15,0,0,0-3.2,0c-1.87,1.51-3.87,2.85-6.15,4.51a35.32,35.32,0,0,1,2.19-7.54,2.1,2.1,0,0,0-.95-2.88c-2.05-1.39-4-2.89-6.68-4.82,3.18,0,5.63-.08,8.07,0a2.24,2.24,0,0,0,2.67-1.89C615-131.51,615.9-133.85,616.86-136.79Zm79,99.84c1.79,1.32,3.52,2.72,5.39,3.91,1.56,1,2,2,1.31,3.87a26.52,26.52,0,0,0-2,7c2.35-1.7,4.47-3.14,6.5-4.72a1.74,1.74,0,0,1,2.57,0c2,1.57,4.12,3,6.8,4.94-1-3.1-1.66-5.54-2.54-7.9a1.9,1.9,0,0,1,.86-2.65c2.09-1.38,4.08-2.93,6.11-4.41a31.73,31.73,0,0,0-7.57-.49c-1.42.06-2-.48-2.45-1.82a37.66,37.66,0,0,0-2.64-7.35c-.85,2.64-1.67,5-2.35,7.37a2.11,2.11,0,0,1-2.46,1.81c-2.45-.12-4.91,0-7.37,0ZM624.56,68.61a33.37,33.37,0,0,0-2.1-7.13,2.08,2.08,0,0,1,1-2.86c2.06-1.39,4-2.91,6-4.37a36.36,36.36,0,0,0-7.73-.48,1.94,1.94,0,0,1-2.29-1.66c-.69-2.45-1.6-4.85-2.6-7.79-.93,2.88-1.77,5.14-2.38,7.46a2.35,2.35,0,0,1-2.82,2c-2.4-.13-4.81,0-7.21,0a21.06,21.06,0,0,0,5.16,4.31c2,1.15,2.19,2.48,1.39,4.47A23,23,0,0,0,609.14,69c2.33-1.68,4.38-3.07,6.33-4.6a2,2,0,0,1,2.81,0c2.05,1.47,3.84,3.36,6.33,4.19ZM519.3-22.69a37,37,0,0,0,6.11-4.2,1.94,1.94,0,0,1,2.79,0c2,1.58,4.13,3,6.75,4.9-1-3.08-1.73-5.45-2.58-7.78a2.12,2.12,0,0,1,1-2.91c2-1.35,4-2.86,5.94-4.3a26.92,26.92,0,0,0-7.3-.51c-1.66.1-2.35-.55-2.76-2.08-.6-2.25-1.44-4.44-2.42-7.39-1,3-1.85,5.24-2.47,7.52a2.2,2.2,0,0,1-2.6,1.95c-2.44-.12-4.88,0-7.32,0a30.72,30.72,0,0,0,5.92,4.87c1.24.79,1.34,1.57.9,2.86a39.28,39.28,0,0,0-2.09,6.88Zm6.44,44.36c1.74-.66,3-2,4.51-3,3.18-2.23,3.15-2.25,6.22,0,1.47,1.06,3,2.08,5,3.52-1-3.09-1.69-5.47-2.55-7.79a1.94,1.94,0,0,1,.9-2.68c2.09-1.42,4.1-3,6.14-4.46a37.38,37.38,0,0,0-7.76-.44A1.94,1.94,0,0,1,536,5.1c-.7-2.45-1.57-4.85-2.57-7.87-.87,2.66-1.69,4.74-2.2,6.89S529.77,7,527.6,6.78s-4.52,0-7.47,0c2.7,1.95,4.74,3.51,6.87,4.94a2,2,0,0,1,.85,2.68c-.75,2.43-2,4.73-2.08,7.35Zm183.17,0c0-2.38-1.08-4.47-1.85-6.62-.62-1.73-.48-2.85,1.21-3.87,2-1.21,3.83-2.72,6.27-4.49-3.32,0-5.89-.06-8.45,0a1.91,1.91,0,0,1-2.24-1.69c-.69-2.46-1.59-4.85-2.57-7.78-1,3-1.85,5.35-2.55,7.79a1.93,1.93,0,0,1-2.25,1.68c-2.54-.1-5.08,0-8.41,0,2.61,1.9,4.54,3.42,6.57,4.76,1.25.82,1.6,1.6,1,3.07-.89,2.27-1.51,4.64-2.45,7.62,2.53-1.81,4.56-3.11,6.39-4.64,1.28-1.07,2.19-.92,3.43,0,1.89,1.47,3.93,2.74,5.91,4.09ZM563,52.09c1.58-1.41,2.75-1.2,4.25.06,1.7,1.45,3.6,2.66,6,4.39-1-2.95-1.56-5.18-2.4-7.33-.64-1.62-.43-2.64,1.12-3.64a29.14,29.14,0,0,0,5.84-4.51c-2.71,0-5-.11-7.19,0-1.77.12-2.62-.43-3.13-2.22a26.89,26.89,0,0,0-2.56-7,58.33,58.33,0,0,0-1.79,5.72c-.55,2.69-1.78,4-4.72,3.52a46.43,46.43,0,0,0-6.45-.06c2.66,1.94,4.62,3.46,6.68,4.84a2,2,0,0,1,.9,2.71c-.85,2.4-1.6,4.83-2.59,7.88C559.34,54.78,561.32,53.59,563,52.09Zm110.63-2.64a2.25,2.25,0,0,1,1.05-3.09c2-1.34,4-2.86,6.52-4.71-3.16,0-5.62-.09-8.08,0a2.18,2.18,0,0,1-2.62-1.85c-.64-2.35-1.48-4.65-2.47-7.66-1,2.93-1.87,5.14-2.43,7.43-.42,1.72-1.27,2.19-3,2.08-2.37-.15-4.76,0-7.15,0,0,.72.49.8.77,1.05,2.08,1.87,5.79,2.71,6.24,5.31.42,2.44-1.42,5.27-2.28,8a1.83,1.83,0,0,0,1.8-.42c.8-.6,1.61-1.18,2.42-1.76,3.56-2.6,3.54-2.58,7-.1a13.21,13.21,0,0,0,4.09,2.52A30.92,30.92,0,0,0,673.65,49.45ZM561.37-96.44c2-1.4,4.13-2.75,6.11-4.23a1.8,1.8,0,0,1,2.59,0c2,1.58,4.19,3,6.84,4.93-.88-2.71-1.41-4.79-2.23-6.75s-.61-3.33,1.41-4.47a69.65,69.65,0,0,0,5.83-4.2c-3.28,0-5.77-.06-8.25,0a2,2,0,0,1-2.3-1.64c-.71-2.48-1.59-4.91-2.59-8-1,3-1.86,5.41-2.55,7.86a2.07,2.07,0,0,1-2.47,1.75c-2.43-.12-4.88,0-8.08,0,2.69,2,4.69,3.54,6.79,5a1.79,1.79,0,0,1,.8,2.45c-.76,2.35-1.83,4.62-2.12,7.11Zm92.77-14.2c2,1.46,4,3,6,4.35a1.91,1.91,0,0,1,.88,2.64c-.87,2.4-1.58,4.87-2.56,7.93,2.68-1.93,4.8-3.38,6.82-5a1.78,1.78,0,0,1,2.59,0c2,1.58,4.2,3,6.8,4.9a52.16,52.16,0,0,0-2-6c-1.2-2.54-.84-4.26,1.75-5.64a46.56,46.56,0,0,0,5.16-3.75c-3.11,0-5.52-.09-7.92,0a2.21,2.21,0,0,1-2.65-1.87c-.64-2.35-1.48-4.65-2.23-7a36.23,36.23,0,0,0-2.82,7.18,2,2,0,0,1-2.28,1.66c-2.47-.1-4.94,0-7.42,0ZM532.29-80.46c-.49,2.13-1.46,3-3.74,2.81a23.34,23.34,0,0,0-6.83.2c2.32,1.69,4.28,3.22,6.34,4.6a1.94,1.94,0,0,1,.87,2.67,40,40,0,0,0-2.22,7.65c2.36-1.7,4.47-3.15,6.49-4.71a1.81,1.81,0,0,1,2.59,0c2,1.56,4.13,3,6.79,4.91-1-3-1.56-5.39-2.48-7.67-.59-1.49-.15-2.23,1-3,2-1.35,3.91-2.84,6.41-4.68-3.23,0-5.71-.06-8.18,0a1.93,1.93,0,0,1-2.29-1.65c-.71-2.53-1.63-5-2.61-7.92C533.64-84.71,532.79-82.63,532.29-80.46ZM706.18-69.73c-.67-1.66-.21-2.56,1.19-3.47,1.91-1.23,3.7-2.66,5.54-4a27.2,27.2,0,0,0-7.24-.47c-1.65.1-2.34-.52-2.75-2.06-.61-2.31-1.47-4.55-2.45-7.5-1,3.07-1.83,5.33-2.47,7.63-.4,1.41-1,2-2.58,1.93-2.42-.15-4.85,0-7.27,0a35,35,0,0,0,5.93,4.86,1.93,1.93,0,0,1,.87,2.66c-.86,2.4-1.6,4.85-2.6,7.92,2.69-1.94,4.81-3.39,6.84-5a1.79,1.79,0,0,1,2.6,0c2,1.57,4.15,3,6.81,4.94C707.67-65.2,707.07-67.53,706.18-69.73Zm-145-26.91c-.1.09-.28.25-.27.27.19.26.35.13.49-.07Zm-42,73.77c-.25.13-.37.29-.09.52l.27-.34Zm6.62,44.54-.14.19.17-.15Zm183.17,0,.23,0-.2-.06ZM624.56,68.61l.2.11-.15-.15Z" transform="translate(-489.3 158.93)" class="cls-2"></path> <path fill="#FFFFFF" data-v-17a731bc="" d="M606.73,2.74H562.18V-64.51h44.55V-52.9H576.26v16.21H605v10.81H576.26v17h30.47ZM631-22.43c0,8.62,5.08,14.26,14.12,14.26s14.07-5.64,14.07-14.26V-64.51h14.07V-21c0,14.82-11,24.93-28.14,24.93S616.89-6.21,616.89-21V-64.51H631Z" transform="translate(-489.3 158.93)" class="cls-3"></path></svg>