<svg height="24px" xmlns="http://www.w3.org/2000/svg" viewBox="0 0 221.04 38.93" data-v-6bd9c9e3="" data-v-bf0a0d4a="" data-v-708ab03e=""><path fill="#22282f" d="M11.49,8.18H0V1.88h30.88v6.3h-11.49v26.37h-7.95s.04-26.37.04-26.37ZM31.46,17.07v17.43h7.6v-8.76c0-6.84,3.84-9.03,9.25-8.94v-6.88c-4.96-.13-7.91,2.23-9.25,5.41,0-1.3-.09-3.93-.22-4.78h-7.42c.04,2.19.04,4.33.04,6.52h0ZM58.5,24.4h0l18.86.09c.04-.8.04-1.21.04-1.83,0-6.26-3.75-12.69-13.09-12.69-8.76,0-13.32,5.94-13.32,12.69,0,6.08,3.53,12.6,13.36,12.6,7.69,0,11.31-3.75,12.74-8h-7.6c-.89,1.43-2.23,2.32-5.09,2.32-3.62,0-5.72-2.28-5.9-5.18h0ZM69.67,19.75h-11.04c.22-2.32,1.65-4.51,5.63-4.51,4.29,0,5.27,2.68,5.41,4.51h0ZM82.23,16.62h0l-.04,12.87h7.64v-6.88c0-4.33,1.79-6.79,5.18-6.79s4.47,2.41,4.47,5.14v8.49h7.64v-9.7c0-6.17-3.49-9.83-9.38-9.83-4.65,0-6.84,2.1-7.95,3.75-.04-.94-.13-2.41-.22-3.08h-7.37c.04,1.7.04,4.02.04,6.03h0ZM139.39,0h-7.64v12.38c-.72-.85-2.59-2.46-7.28-2.46-5.9,0-12.33,4.74-12.33,12.83,0,7.46,4.96,12.42,11.62,12.42,5.01,0,6.66-1.56,8-3.4.04.94.09,2.06.18,2.77h7.51c-.04-2.23-.04-4.51-.04-6.75V0h0ZM119.95,22.61h0c0-3.53,1.83-6.79,6.12-6.79s5.9,2.64,5.9,6.75-2.06,6.7-5.94,6.7-6.08-2.86-6.08-6.66h0ZM171.92,22.52c0-5.94-4.6-12.65-13.68-12.65s-13.81,5.99-13.81,12.65,4.6,12.65,13.5,12.65,13.99-5.27,13.99-12.65h0ZM152.13,22.57c0-3.71,1.79-6.88,5.99-6.88s5.99,3.4,5.99,7.02-1.97,6.79-5.94,6.79-6.03-3.22-6.03-6.93h0ZM176.97,17.07v17.43h7.6v-8.76c0-6.84,3.84-9.03,9.25-8.94v-6.88c-5.01-.13-7.91,2.23-9.25,5.41,0-1.3-.09-3.93-.22-4.78h-7.42c.04,2.19.04,4.33.04,6.52h0ZM220.86,27.84l-.09-9.07c0-3.98-1.47-8.89-11.89-8.89-9.47,0-11.53,4.78-11.75,7.73h7.6c.31-1.34,1.07-2.59,4.33-2.59,3.53,0,4.38,1.56,4.38,3.53v.76h-5.01c-7.11,0-12.6,1.74-12.6,8.04,0,3.84,2.64,7.82,9.21,7.82,4.51,0,7.28-1.3,8.58-3.35.04.67.09,2.15.27,2.73h7.15c-.04-.49-.18-3.58-.18-6.7h0ZM213.44,24.13l.04.36c0,3.4-2.1,5.32-6.26,5.32-2.77,0-4.02-1.25-4.02-2.82,0-1.88,1.52-2.9,5.36-2.9,2.68,0,4.33,0,4.87.04h0Z" class="logo_black" data-v-6bd9c9e3=""></path> <path fill="#D97D26" d="M85.89,31.42c2.07,0,3.75,1.68,3.75,3.75s-1.68,3.75-3.75,3.75-3.75-1.68-3.75-3.75,1.68-3.75,3.75-3.75ZM99.66,35.17c0,2.07,1.68,3.75,3.75,3.75s3.75-1.68,3.75-3.75-1.68-3.75-3.75-3.75-3.75,1.68-3.75,3.75Z" class="logo_color" data-v-6bd9c9e3=""></path></svg>