<svg data-v-591b7b54="" data-v-c944b924="" width="30px" height="30px" xmlns="http://www.w3.org/2000/svg" viewBox="0 0 13 12.74"><path fill="#575b66" d="M5.6,0h4.1c1.1,0,2.2,.4,3.1,1.1,.1,.1,.2,.2,.2,.4v3.4c0,.2-.1,.3-.3,.4-1.1,.5-2.1,.5-3.2,.1-.3-.1-.4-.1-.6-.1H1.3c-.3,0-.5-.1-.5-.5V.4c0-.3,.1-.4,.5-.4H5.6Zm4,.8V3s0,.1,.1,.1c.2,.1,.2,.4,.1,.6-.1,0-.2,.1-.3,.1h-2.4c-.3,0-.4,.1-.5,.2-.1,.3,.1,.5,.4,.5h1.9c.2,0,.5,0,.7,.1,.8,.4,1.6,.4,2.4,.1,.1,0,.1-.1,.1-.2V1.6q0-.1-.1-.2c-.3-.2-.7-.4-1.1-.6h-1.3Zm-3.2,1.8c0-.2,0-.4-.1-.6-.1-.4-.3-.7-.5-1-.4-.3-.8-.3-1.1,0-.1,.1-.2,.2-.3,.4-.4,.7-.4,1.4-.2,2.2,.1,.3,.2,.5,.5,.7,.4,.3,.8,.3,1.1-.1v-.1c0-.3,.1-.6,.3-.8,.1-.1,.1-.2,.1-.3,.1-.1,.1-.2,.2-.4Zm-2.5,1.9c-.8-1.2-.8-2.5,0-3.7h-.8c-.3,.7-.8,1.2-1.5,1.4v.8c.8,.3,1.2,.8,1.4,1.5h.9Zm3.2-1.5h1.8v-.8c-.8-.2-1.3-.7-1.5-1.4h-.8c.4,.7,.6,1.4,.5,2.2ZM1.6,1.4c.3-.1,.6-.4,.7-.7h-.7v.7Zm7.3,0V.7h-.7c.1,.4,.3,.6,.7,.7ZM2.2,4.5c0-.3-.3-.6-.6-.6v.7c.2-.1,.4-.1,.6-.1Zm.6,3.4v-1.5c0-.2,.2-.4,.4-.4h5.5c.3,0,.4,.1,.4,.4v1.6h.6c.4,.1,.8,.5,.9,.9,.1,.5-.1,.9-.5,1.2l-1.5,.9c-.8,.5-1.6,.9-2.4,1.4-.5,.3-1.1,.4-1.7,.3l-1.8-.3h-.1c-.1,.1-.3,.2-.4,.2-.2,.1-.5,.1-.6-.2-.7-.8-1.1-1.9-1.6-2.9,0-.2,0-.4,.2-.5,.5-.3,1-.6,1.5-.8,.2-.2,.6-.2,.9-.2q.1,0,.2-.1Zm-.9,4.1c.2-.1,.3-.2,.5-.2l2.1,.3c.4,.1,.7,0,1-.2,.8-.4,1.5-.9,2.3-1.3,.6-.3,1.1-.7,1.7-1,.2-.1,.2-.2,.2-.4,0-.3-.3-.4-.5-.2-.9,.5-1.9,1-2.8,1.6-.2,.1-.5,.2-.8,.1-.8-.1-1.6-.3-2.4-.4-.2,0-.4-.2-.3-.4,0-.2,.2-.4,.5-.3,.6,.1,1.2,.2,1.9,.3,.2,0,.4,.1,.6,.1,.1,0,.3-.2,.3-.3,0-.2,0-.3-.2-.4,0-.1-.1-.1-.2-.1-.8-.1-1.6-.2-2.4-.4-1-.2-1.8,.2-2.6,.7,.4,.8,.8,1.6,1.1,2.5Zm1.6-4c.8,.1,1.6,.3,2.4,.4,.5,.1,.9,.4,1.1,.9h0c.4-.3,.9-.5,1.3-.8l.1-.1v-1.6H3.6c-.1,.5-.1,.8-.1,1.2Z"></path></svg>