<svg data-v-e973d262="" xmlns="http://www.w3.org/2000/svg" width="45" height="45" viewBox="0 0 40.266 33.016"><g data-v-e973d262="" id="_1cydVn.tif" data-name="1cydVn.tif" transform="translate(-165.419 -312.506)"><g data-v-e973d262="" id="Group_461" data-name="Group 461" transform="translate(165.419 312.506)"><path data-v-e973d262="" d="M189.7,335.087q0-.971,0-1.942a.8.8,0,1,0,0-1.592q0-.974,0-1.949a.812.812,0,0,0,.807-.943q0-2.56,0-5.12c0-.57.176-.746.751-.747,2.736,0,5.471,0,8.207-.007.258,0,.307.077.306.318-.01,2.146,0,4.292-.007,6.438a.9.9,0,0,0,.416.9.865.865,0,0,0,.95-.122c.852-.534,1.709-1.061,2.556-1.6a.337.337,0,0,1,.425,0c.856.546,1.719,1.082,2.58,1.621a.833.833,0,0,0,.924.1.861.861,0,0,0,.407-.837c-.007-2.176,0-4.352-.009-6.528,0-.219.047-.283.276-.283,2.746.009,5.491.005,8.237.006.576,0,.772.2.772.771q0,2.68,0,5.36c0,.463,0,.463-.445.425-.04,0-.08,0-.12,0q-2.351-.005-4.7-.009a2.328,2.328,0,0,0-.737.1,1.828,1.828,0,0,0-1.218,2.183,4.473,4.473,0,0,0,.415,1.141h-.358c-1.817,0-3.634,0-5.451,0a2.321,2.321,0,0,0-2.379,2.9c.029.146.012.207-.145.2a1.705,1.705,0,0,0-.209.008,2.33,2.33,0,0,0-2.113,2.585,2.3,2.3,0,0,0,2.282,2.035c.161-.006.224.016.181.215a2.3,2.3,0,0,0,1.939,2.842c.132.021.174.034.142.2a2.311,2.311,0,0,0,2.4,2.907h8.9a6.575,6.575,0,0,0,1.624-.12c0,.84.01,1.658,0,2.475-.007.361-.272.568-.67.568q-8.911,0-17.822.005c-.237,0-.289-.054-.231-.283a5.989,5.989,0,0,0,.01-2.872,6.367,6.367,0,0,0-7.717-4.773c-.356.084-.356.084-.356-.286q0-2.65,0-5.3C190.5,335.448,190.265,335.162,189.7,335.087Z" transform="translate(-185.969 -321.209)" fill="#ffc266"></path> <path data-v-e973d262="" d="M205.676,326.6a1.65,1.65,0,0,0-1.668-1.646c-.3-.006-.6-.012-.9,0a2.231,2.231,0,0,1-1.537-.553,12.382,12.382,0,0,1-1.37-1.338,9.607,9.607,0,0,0-1.672-1.534.462.462,0,0,1-.22-.441c.008-2.086,0-4.173.006-6.258a2.677,2.677,0,0,0-.1-.8,2.173,2.173,0,0,0-2.239-1.531q-12.626,0-25.252,0c-.069,0-.14,0-.209,0a2.15,2.15,0,0,0-2.145,2.127c-.011,1.639-.008,10.558,0,13.464v.3q0,2.55,0,5.1a.47.47,0,0,1-.223.438,6.193,6.193,0,0,0-2.715,4.795,6.339,6.339,0,0,0,5.857,6.774,6.238,6.238,0,0,0,5.813-2.813.509.509,0,0,1,.481-.252q9.286.009,18.572,0a2.135,2.135,0,0,0,2.156-2.133c.006-.8.043-1.6-.012-2.4a1.338,1.338,0,0,1,.623-1.333,3.947,3.947,0,0,1,2.585-.906c.848.045,1.7.017,2.546,0a1.633,1.633,0,0,0,1.62-1.593Q205.694,330.347,205.676,326.6ZM181,314.083q2.347.009,4.7,0c.124,0,.2.012.2.172q-.009,2.647-.011,5.294c0,.006-.011.011-.043.04l-.792-.493c-.413-.258-.828-.516-1.239-.776a.822.822,0,0,0-.951,0q-.9.564-1.8,1.121a.452.452,0,0,1-.269.118c0-1.772,0-3.528,0-5.281C180.8,314.126,180.849,314.083,181,314.083Zm-9.194,29.882a4.809,4.809,0,1,1,4.811-4.778A4.821,4.821,0,0,1,171.81,343.966Zm24.933-3.658c-.008.361-.272.568-.671.568q-8.91,0-17.822,0c-.237,0-.289-.054-.23-.283a6.015,6.015,0,0,0,.011-2.872,6.368,6.368,0,0,0-7.717-4.773c-.356.085-.356.085-.356-.287q0-1.99,0-3.979v-1.321c0-3.356,0-11.08,0-12.529,0-.57.177-.746.753-.746,2.735,0,5.47,0,8.207-.006.258,0,.306.077.306.318-.009,2.145,0,4.291-.008,6.438a.9.9,0,0,0,.416.894.861.861,0,0,0,.949-.121c.852-.533,1.709-1.061,2.557-1.6a.337.337,0,0,1,.424,0c.857.547,1.72,1.083,2.58,1.622a.833.833,0,0,0,.924.1.86.86,0,0,0,.407-.837c-.006-2.176,0-4.352-.008-6.528,0-.22.046-.283.276-.283,2.744.009,5.49.006,8.236.006.576,0,.772.2.772.771v5.36c0,.464,0,.464-.445.425-.038,0-.078,0-.118,0q-2.352-.007-4.7-.009a2.351,2.351,0,0,0-.737.1,1.829,1.829,0,0,0-1.218,2.182,4.472,4.472,0,0,0,.415,1.141h-.358c-1.817,0-3.634,0-5.452,0a2.322,2.322,0,0,0-2.379,2.9c.029.146.014.206-.144.2a1.573,1.573,0,0,0-.209.008,2.329,2.329,0,0,0-2.113,2.585,2.3,2.3,0,0,0,2.282,2.035c.161,0,.224.017.181.215a2.3,2.3,0,0,0,1.938,2.843c.132.022.174.034.141.2a2.311,2.311,0,0,0,2.4,2.906q4.448,0,8.9,0a6.633,6.633,0,0,0,1.625-.12C196.747,338.672,196.756,339.491,196.742,340.308Zm7.028-6.181c-.839-.022-1.679.011-2.516-.012a4.6,4.6,0,0,0-2.946.981c-.335.252-.674.5-1.011.746a2.8,2.8,0,0,1-1.734.542q-4.628,0-9.256,0a1.077,1.077,0,0,1-.66-.146.755.755,0,0,1-.281-.822.73.73,0,0,1,.722-.522c.819-.006,1.639,0,2.457,0a.872.872,0,0,0,.8-.376.768.768,0,0,0-.5-1.183,2.333,2.333,0,0,0-.387-.029q-2.126,0-4.254,0a.961.961,0,0,1-.723-.221.745.745,0,0,1,.324-1.246,1.461,1.461,0,0,1,.416-.043q2.156,0,4.312,0c.587,0,.954-.289.944-.762a.838.838,0,0,0-.937-.815c-2.278.02-4.553.011-6.831.009a.76.76,0,0,1-.832-.576.743.743,0,0,1,.7-.915c.278-.017.559,0,.839,0,2.056,0,4.114,0,6.171,0a.8.8,0,0,0,.857-1.006.767.767,0,0,0-.815-.561q-2.2,0-4.4,0a1.487,1.487,0,0,1-.444-.048.724.724,0,0,1-.507-.812.714.714,0,0,1,.619-.633,3.1,3.1,0,0,1,.359-.015h5.541q2.847,0,5.691,0c.541,0,.863-.241.917-.666a.787.787,0,0,0-.846-.92c-.938-.008-1.877,0-2.815,0a1.684,1.684,0,0,1-1.606-1.206c-.161-.516-.064-.651.479-.653q2.126,0,4.254,0a2.8,2.8,0,0,1,.356.031,3.548,3.548,0,0,1,1.88.977c.553.49,1.037,1.05,1.556,1.576a7.537,7.537,0,0,0,1.52,1.252,3.477,3.477,0,0,0,1.823.488c.28,0,.559.011.839,0,.209-.011.3.065.273.273a.889.889,0,0,0,0,.091c0,2.3,0,4.592.006,6.886C204.117,334.039,204.057,334.134,203.77,334.126Z" transform="translate(-165.419 -312.506)" fill="#0a0908"></path> <path data-v-e973d262="" d="M274.887,379.083q2.846,0,5.691,0c.541,0,.863-.241.916-.666a.787.787,0,0,0-.845-.92c-.939-.007-1.877,0-2.816-.005a1.684,1.684,0,0,1-1.607-1.2c-.161-.516-.064-.652.479-.653q2.127,0,4.254,0a2.7,2.7,0,0,1,.357.03,3.544,3.544,0,0,1,1.879.977c.553.491,1.038,1.05,1.557,1.576a7.567,7.567,0,0,0,1.519,1.251,3.469,3.469,0,0,0,1.823.489c.28,0,.56.011.838,0,.209-.011.3.063.275.273a.726.726,0,0,0,0,.09c0,2.3,0,4.592.005,6.887,0,.267-.059.363-.347.355-.838-.021-1.678.01-2.516-.012a4.588,4.588,0,0,0-2.945.981c-.335.251-.674.5-1.01.747a2.807,2.807,0,0,1-1.735.542q-4.628,0-9.256,0a1.073,1.073,0,0,1-.659-.146.757.757,0,0,1-.281-.823.728.728,0,0,1,.722-.521c.819-.006,1.638,0,2.456,0a.87.87,0,0,0,.8-.375.768.768,0,0,0-.5-1.183,2.111,2.111,0,0,0-.387-.029q-2.127,0-4.254,0a.957.957,0,0,1-.723-.221.744.744,0,0,1,.324-1.245,1.453,1.453,0,0,1,.415-.043q2.157,0,4.313,0c.586,0,.953-.29.945-.762a.838.838,0,0,0-.938-.815c-2.276.02-4.553.01-6.83.008a.761.761,0,0,1-.833-.576.743.743,0,0,1,.7-.916c.279-.016.559,0,.839,0q3.086,0,6.171,0a.8.8,0,0,0,.857-1,.768.768,0,0,0-.816-.561q-2.2,0-4.4,0a1.512,1.512,0,0,1-.444-.049.724.724,0,0,1-.507-.813.715.715,0,0,1,.62-.632,2.8,2.8,0,0,1,.359-.016Z" transform="translate(-250.516 -365.937)" fill="#f1a381"></path> <path data-v-e973d262="" d="M180.437,464.349a4.809,4.809,0,1,1,4.812-4.778A4.819,4.819,0,0,1,180.437,464.349Zm2.672-6.221a.78.78,0,0,0-.445-.774.719.719,0,0,0-.833.112,2.8,2.8,0,0,0-.305.328c-.543.649-1.088,1.3-1.624,1.953-.1.125-.172.16-.3.033-.162-.161-.341-.306-.517-.452a.789.789,0,0,0-.722-.193.769.769,0,0,0-.35,1.331c.4.374.827.718,1.244,1.074a.784.784,0,0,0,1.247-.091q1.191-1.4,2.367-2.812A.79.79,0,0,0,183.109,458.128Z" transform="translate(-174.047 -432.89)" fill="#61a634"></path> <path data-v-e973d262="" d="M265.58,328.266c0-1.773,0-3.528,0-5.282,0-.158.047-.2.2-.2q2.348.008,4.7,0c.124,0,.2.012.2.173q-.01,2.647-.01,5.293c0,.006-.012.012-.043.04l-.793-.493c-.413-.258-.827-.515-1.238-.776a.825.825,0,0,0-.952,0q-.895.565-1.8,1.121A.457.457,0,0,1,265.58,328.266Z" transform="translate(-250.195 -321.206)" fill="#ffecce"></path> <path data-v-e973d262="" d="M194.893,472.118a.79.79,0,0,1-.237.509q-1.18,1.409-2.367,2.812a.784.784,0,0,1-1.247.091c-.416-.356-.844-.7-1.244-1.074a.769.769,0,0,1,.35-1.331.789.789,0,0,1,.722.193c.177.146.355.291.517.452.128.127.2.091.3-.033.536-.655,1.08-1.3,1.624-1.953a2.8,2.8,0,0,1,.305-.328.719.719,0,0,1,.833-.112A.78.78,0,0,1,194.893,472.118Z" transform="translate(-185.832 -446.88)" fill="#0a0908"></path></g></g></svg>