<svg version="1.1" xmlns="http://www.w3.org/2000/svg" xmlns:xlink="http://www.w3.org/1999/xlink" x="0px" y="0px" width="66.7px" height="10.6px" viewBox="0 0 66.7 10.6" xml:space="preserve" style="overflow: visible; enable-background: new 0 0 66.7 10.6" data-v-da997f2c=""><path fill="#f9ad00" d="M11.1,3.9c0.1,0.1,0.1,0.3,0,0.4L8.3,6.7l0.8,3.5c0,0.1,0,0.1,0,0.2c-0.1,0.1-0.3,0.2-0.4,0.1L5.6,8.7l-2.4,1.5 c0,0,0,0,0,0l-0.7,0.4c-0.1,0-0.1,0-0.2,0c-0.1,0-0.3-0.2-0.2-0.4l0,0c0,0,0,0,0,0l0.8-3.5L0.1,4.4C0,4.3,0,4.2,0,4.2c0,0,0,0,0,0 c0,0,0,0,0,0C0,4,0.1,3.8,0.3,3.8l3.6-0.3l1.4-3.3c0-0.1,0.1-0.1,0.1-0.1C5.6,0,5.8,0,5.8,0.2l0.7,1.6c0,0,0,0,0,0l0.7,1.7l3.6,0.3 C10.9,3.9,11,3.9,11.1,3.9z M38.7,3.8l-3.6-0.3l-0.7-1.7c0,0,0,0,0,0l-0.1-0.3l-0.6-1.4c0-0.1-0.1-0.1-0.2-0.2c-0.1,0-0.1,0-0.2,0 c-0.1,0-0.1,0.1-0.1,0.1l-1.4,3.3l-0.3,0l-3.3,0.3c-0.1,0-0.3,0.1-0.3,0.3c0,0,0,0,0,0c0,0,0,0,0,0c0,0.1,0,0.1,0.1,0.2l2.7,2.4 l-0.8,3.5c0,0,0,0,0,0l0,0c0,0.1,0.1,0.3,0.2,0.4c0.1,0,0.1,0,0.2,0l0.7-0.4c0,0,0,0,0,0l2.4-1.5l3.1,1.9c0.1,0.1,0.3,0,0.4-0.1 c0-0.1,0-0.1,0-0.2l-0.8-3.5l2.7-2.4C39,4.2,39,4,38.9,3.9C38.8,3.9,38.7,3.9,38.7,3.8z M24.8,3.8l-3.6-0.3l-0.7-1.7c0,0,0,0,0,0 l-0.8-1.6C19.6,0,19.5,0,19.3,0c0,0-0.1,0-0.1,0.1c0,0-0.1,0-0.1,0.1l-1.4,3.3l-3.6,0.3c-0.1,0-0.3,0.1-0.3,0.3c0,0.1,0,0.1,0.1,0.2 l2.7,2.4l-0.8,3.5c0,0.1,0.1,0.3,0.2,0.4c0,0,0,0,0,0c0,0,0,0,0,0c0.1,0,0.1,0,0.2,0l0.6-0.4l2.4-1.5l3.1,1.9c0.1,0.1,0.3,0,0.4-0.1 c0-0.1,0-0.1,0-0.2l-0.8-3.5l2.7-2.4C25,4.2,25.1,4,25,3.9C24.9,3.9,24.8,3.9,24.8,3.8z M52.6,3.8L49,3.5l-1.4-3.3 C47.5,0,47.3,0,47.1,0c-0.1,0-0.1,0.1-0.1,0.1l-1.4,3.3L42,3.8c-0.1,0-0.3,0.1-0.3,0.3c0,0.1,0,0.1,0.1,0.2l2.7,2.4l-0.8,3.5 c0,0.1,0.1,0.3,0.2,0.4c0.1,0,0.1,0,0.2,0l3.1-1.9l3.1,1.9c0.1,0.1,0.3,0,0.4-0.1c0-0.1,0-0.1,0-0.2L50,6.7l2.7-2.4 c0.1-0.1,0.1-0.3,0-0.4C52.7,3.9,52.6,3.9,52.6,3.8z M66.7,3.9c-0.1,0-0.1-0.1-0.2-0.1l-3.6-0.3l-0.7-1.7c0,0,0,0,0,0l-0.7-1.6 C61.3,0,61.2,0,61,0c-0.1,0-0.1,0.1-0.1,0.1l-1.4,3.3l-3.6,0.3c-0.1,0-0.3,0.1-0.3,0.3c0,0.1,0,0.1,0.1,0.2l2.7,2.4l-0.8,3.5 c0,0.1,0.1,0.3,0.2,0.4c0.1,0,0.1,0,0.2,0l3.1-1.9l3.1,1.9c0.1,0.1,0.3,0,0.4-0.1c0-0.1,0-0.1,0-0.2l-0.8-3.5l2.7-2.4 C66.7,4.2,66.8,4,66.7,3.9z" class="st0_stars" data-v-da997f2c=""></path></svg>