<!-- Generator: Adobe Illustrator 24.3.0, SVG Export Plug-In  -->
<svg version="1.1" xmlns="http://www.w3.org/2000/svg" xmlns:xlink="http://www.w3.org/1999/xlink" x="0px" y="0px" width="200.2px"
	 height="200.2px" viewBox="0 0 200.2 200.2" style="overflow:visible;enable-background:new 0 0 200.2 200.2;"
	 xml:space="preserve">
<style type="text/css">
	.st0_tz_like{fill:#FFC850;}
	.st1_tz_like{fill:#E1A546;}
	.st2{fill:#FFDC64;}
	.st3_tz_like{fill:#FFFFFF;}
	.st4_tz_like{fill:#282738;}
</style>
<path class="st0_tz_like" d="M101.5,8.4l11.8-4.5c1.3-0.5,2.8-0.3,3.9,0.6l9.9,7.9c0.8,0.6,1.7,0.9,2.7,0.9l12.6-0.6
	c1.4-0.1,2.7,0.6,3.5,1.8l6.9,10.6c0.5,0.8,1.3,1.4,2.3,1.7l12.2,3.3c1.4,0.4,2.4,1.4,2.8,2.8l3.3,12.2c0.3,0.9,0.8,1.7,1.7,2.3
	l10.6,6.9c1.2,0.8,1.9,2.1,1.8,3.5l-0.6,12.6c0,1,0.3,1.9,0.9,2.7l7.9,9.9c0.9,1.1,1.1,2.6,0.6,3.9l-4.5,11.8
	c-0.3,0.9-0.3,1.9,0,2.8l4.5,11.8c0.5,1.3,0.3,2.8-0.6,3.9l-7.9,9.9c-0.6,0.8-0.9,1.7-0.9,2.7l0.6,12.6c0.1,1.4-0.6,2.7-1.8,3.5
	l-10.6,6.9c-0.8,0.5-1.4,1.3-1.7,2.3l-3.3,12.2c-0.4,1.4-1.4,2.4-2.8,2.8l-12.2,3.3c-0.9,0.3-1.7,0.8-2.3,1.7l-6.9,10.6
	c-0.8,1.2-2.1,1.9-3.5,1.8l-12.6-0.6c-1,0-1.9,0.3-2.7,0.9l-9.9,7.9c-1.1,0.9-2.6,1.1-3.9,0.6l-11.8-4.5c-0.9-0.3-1.9-0.3-2.8,0
	l-11.8,4.5c-1.3,0.5-2.8,0.3-3.9-0.6l-9.9-7.9c-0.8-0.6-1.7-0.9-2.7-0.9l-12.6,0.6c-1.4,0.1-2.7-0.6-3.5-1.8l-6.9-10.6
	c-0.5-0.8-1.3-1.4-2.3-1.7l-12.2-3.3c-1.4-0.4-2.4-1.4-2.8-2.8l-3.3-12.2c-0.3-0.9-0.8-1.7-1.7-2.3l-10.6-6.9
	c-1.2-0.8-1.9-2.1-1.8-3.5l0.6-12.6c0-1-0.3-1.9-0.9-2.7l-7.9-9.9c-0.9-1.1-1.1-2.6-0.6-3.9l4.5-11.8c0.3-0.9,0.3-1.9,0-2.8
	L3.9,86.9c-0.5-1.3-0.3-2.8,0.6-3.9l7.9-9.9c0.6-0.8,0.9-1.7,0.9-2.7l-0.6-12.6c-0.1-1.4,0.6-2.7,1.8-3.5l10.6-6.9
	c0.8-0.5,1.4-1.3,1.7-2.3l3.3-12.2c0.4-1.4,1.4-2.4,2.8-2.8l12.2-3.3c0.9-0.3,1.7-0.8,2.3-1.7l6.9-10.6c0.8-1.2,2.1-1.9,3.5-1.8
	l12.6,0.6c1,0,1.9-0.3,2.7-0.9L83,4.6c1.1-0.9,2.6-1.1,3.9-0.6l11.8,4.5C99.6,8.8,100.6,8.8,101.5,8.4z"/>
<path class="st1_tz_like" d="M130.2,170.3C74.8,170.3,29.9,125.4,29.9,70c0-14.8,3.2-28.9,9-41.6l-6,1.7c-1.4,0.4-2.4,1.4-2.8,2.8l-3.3,12.2
	c-0.3,0.9-0.8,1.7-1.7,2.3l-10.6,6.9c-1.2,0.8-1.9,2.1-1.8,3.5l0.6,12.6c0,1-0.3,1.9-0.9,2.7L4.6,83c-0.9,1.1-1.1,2.6-0.6,3.9
	l4.5,11.8c0.3,0.9,0.3,1.9,0,2.8l-4.5,11.8c-0.5,1.3-0.3,2.8,0.6,3.9l7.9,9.9c0.6,0.8,0.9,1.7,0.9,2.7l-0.6,12.6
	c-0.1,1.4,0.6,2.7,1.8,3.5l10.6,6.9c0.8,0.5,1.4,1.3,1.7,2.3l3.3,12.2c0.4,1.4,1.4,2.4,2.8,2.8l12.2,3.3c0.9,0.3,1.7,0.8,2.3,1.7
	l6.9,10.6c0.8,1.2,2.1,1.9,3.5,1.8l12.6-0.6c1,0,1.9,0.3,2.7,0.9l9.9,7.9c1.1,0.9,2.6,1.1,3.9,0.6l11.8-4.5c0.9-0.3,1.9-0.3,2.8,0
	l11.8,4.5c1.3,0.5,2.8,0.3,3.9-0.6l9.9-7.9c0.8-0.6,1.7-0.9,2.7-0.9l12.6,0.6c1.4,0.1,2.7-0.6,3.5-1.8l6.9-10.6
	c0.5-0.8,1.3-1.4,2.3-1.7l12.2-3.3c1.4-0.4,2.4-1.4,2.8-2.8l1.7-6C159.1,167.1,145.1,170.3,130.2,170.3z"/>
<circle class="st2" cx="100.1" cy="100.1" r="76.9"/>
<path class="st0_tz_like" d="M131.6,154.8c-0.6-0.9-1.5-1.5-2.6-1.6c-38.8-4-69-36.7-69-76.5c0-10.1,2-19.7,5.5-28.5
	c0.9-2.3-1.6-4.3-3.6-2.9C42.6,58.7,30.7,82.1,33.7,108c3.4,30.1,27.5,54.5,57.5,58.4c14.2,1.9,27.6-0.8,39.1-6.7
	C132.1,158.8,132.6,156.5,131.6,154.8L131.6,154.8z"/>
<path class="st3_tz_like" d="M142.8,75c0-3.9-3.2-7-7-7h-24.4c6.6-5.3,11-12.4,11.7-18.3c0.5-4.3-2.5-8.5-6.9-8.5c-3.9,0-7.1,3.1-7.1,7
	c0,2.5-5.5,10.1-15.8,13.4c-1.7,0.5-3.1,1.6-4.3,2.8c-0.9,0.9-3.2,3.8-5.5,5.3c-0.4-1-1.4-1.8-2.6-1.8H63.9c-1.6,0-2.8,1.3-2.8,2.8
	v45.1c0,1.6,1.3,2.8,2.8,2.8h16.9c1.6,0,2.8-1.3,2.8-2.8h45.1c3.1,0,5.6-2.5,5.6-5.6c0-3.1-2.5-5.6-5.6-5.6h2.8
	c3.1,0,5.6-2.5,5.6-5.6c0-3.1-2.5-5.6-5.6-5.6h2.8c3.1,0,5.6-2.5,5.6-5.6c0-3.1-2.5-5.6-5.6-5.6h1.4C139.6,82,142.8,78.8,142.8,75z"
	/>
<path class="st4_tz_like" d="M145.4,75c0-5.3-4.3-9.7-9.7-9.7h-17.8c4.3-4.9,7.1-10.4,7.7-15.4c0.3-3-0.6-6-2.6-8.3c-1.8-2-4.3-3.2-6.9-3.2
	c0,0-0.1,0-0.1,0c-2.6,0-5,1-6.8,2.8c-1.8,1.8-2.8,4.2-2.9,6.8c-0.1,0.6-1.1,2.5-3.5,4.8c-2,1.9-5.4,4.5-10.5,6.1
	c-2,0.6-3.8,1.8-5.4,3.5c-0.8,0.9-2.1,2.1-3.6,3.4c-0.8-0.4-1.6-0.6-2.5-0.6H63.9c-3,0-5.5,2.4-5.5,5.5v45.1c0,3,2.4,5.5,5.5,5.5
	h16.9c2.1,0,3.8-1.1,4.8-2.8h43.1c4.6,0,8.3-3.7,8.3-8.3c0-1.5-0.4-3-1.1-4.2c2.4-1.5,4-4.1,4-7.1c0-1.5-0.4-3-1.1-4.2
	c2.4-1.5,4-4.1,4-7.1c0-1.7-0.5-3.3-1.4-4.7C143.7,81.2,145.4,78.3,145.4,75z M135.7,79.4h-1.4c-1.5,0-2.6,1.2-2.6,2.6
	c0,1.5,1.2,2.6,2.6,2.6c1.7,0,3,1.3,3,3c0,1.7-1.3,3-3,3h-2.8c-1.5,0-2.6,1.2-2.6,2.6c0,1.5,1.2,2.6,2.6,2.6c1.7,0,3,1.3,3,3
	c0,1.7-1.3,3-3,3h-2.8c-1.5,0-2.6,1.2-2.6,2.6s1.2,2.6,2.6,2.6c1.7,0,3,1.3,3,3s-1.3,3-3,3H86.2V87.6c0-1.5-1.2-2.6-2.6-2.6
	c-1.5,0-2.6,1.2-2.6,2.6v28.2c0,0.1-0.1,0.2-0.2,0.2H63.9c-0.1,0-0.2-0.1-0.2-0.2V70.7c0-0.1,0.1-0.2,0.2-0.2h16.9
	c0.1,0,0.2,0.1,0.2,0.2v5.6c0,1.5,1.2,2.6,2.6,2.6c1.5,0,2.6-1.2,2.6-2.6v-5.6c0-0.1,0-0.3,0-0.4c2-1.5,3.6-3.1,4.6-4.2
	c1-1,2-1.8,3.2-2.1c6.2-2,10.4-5.3,12.8-7.6c3-3,4.8-6.1,4.8-8.3c0-1.2,0.5-2.3,1.3-3.1c0.8-0.8,2-1.3,3.2-1.3c1.5,0,2.5,0.8,3,1.4
	c1,1.1,1.4,2.6,1.3,4.2c-0.6,5.2-4.8,11.7-10.7,16.5c-0.9,0.7-1.2,1.9-0.8,2.9c0.4,1.1,1.4,1.8,2.5,1.8h24.4c2.4,0,4.4,2,4.4,4.4
	S138.1,79.4,135.7,79.4z"/>
<path class="st4_tz_like" d="M194.7,100.1l5.4-14.3c0.4-1,0.2-2.2-0.5-3.1L190,70.9l0.7-15.2c0.1-1.1-0.5-2.2-1.4-2.8l-12.7-8.4l-4-14.7
	c-0.3-1.1-1.1-1.9-2.2-2.2l-14.7-4l-8.4-12.7c-0.6-0.9-1.7-1.5-2.8-1.4l-15.2,0.7l-11.9-9.5c-0.9-0.7-2-0.9-3.1-0.5l-14.3,5.4
	L85.9,0.2c-1-0.4-2.2-0.2-3.1,0.5l-11.9,9.5L55.7,9.5c-1.1-0.1-2.2,0.5-2.8,1.4l-8.4,12.7l-14.7,4c-1.1,0.3-1.9,1.1-2.2,2.2l-4,14.7
	l-12.7,8.4c-0.9,0.6-1.5,1.7-1.4,2.8l0.7,15.2L0.7,82.8c-0.7,0.9-0.9,2-0.5,3.1l5.4,14.3l-5.4,14.3c-0.4,1-0.2,2.2,0.5,3.1l9.5,11.9
	l-0.7,15.2c-0.1,1.1,0.5,2.2,1.4,2.8l12.7,8.4l4,14.7c0.3,1.1,1.1,1.9,2.2,2.2l14.7,4l8.4,12.7c0.6,0.9,1.7,1.5,2.8,1.4l15.2-0.7
	l11.9,9.5c0.9,0.7,2,0.9,3.1,0.5l14.3-5.4l14.3,5.4c0.4,0.1,0.7,0.2,1.1,0.2c0.7,0,1.4-0.2,2-0.7l11.9-9.5l15.2,0.7
	c1.1,0,2.2-0.5,2.8-1.4l8.4-12.7l14.7-4c1.1-0.3,1.9-1.1,2.2-2.2l4-14.7l12.7-8.4c0.9-0.6,1.5-1.7,1.4-2.8l-0.7-15.2l9.5-11.9
	c0.7-0.9,0.9-2,0.5-3.1L194.7,100.1z M188.4,101.2l5.2,13.7l-9.1,11.4c-0.5,0.6-0.7,1.3-0.7,2.1l0.7,14.6l-12.2,8
	c-0.6,0.4-1.1,1.1-1.3,1.8L167,167l-14.1,3.9c-0.7,0.2-1.4,0.7-1.8,1.3l-8,12.2l-14.6-0.7c-0.8,0-1.5,0.2-2.1,0.7l-11.4,9.1
	l-13.7-5.2c-0.4-0.1-0.7-0.2-1.1-0.2s-0.8,0.1-1.1,0.2l-13.7,5.2l-11.4-9.1c-0.6-0.5-1.3-0.7-2.1-0.7l-14.6,0.7l-8-12.2
	c-0.4-0.6-1.1-1.1-1.8-1.3L33.2,167l-3.9-14.1c-0.2-0.7-0.7-1.4-1.3-1.8l-12.2-8l0.7-14.6c0-0.8-0.2-1.5-0.7-2.1l-9.1-11.4l5.2-13.7
	c0.3-0.7,0.3-1.5,0-2.2L6.7,85.3l9.1-11.4c0.5-0.6,0.7-1.3,0.7-2.1l-0.7-14.6l12.2-8c0.6-0.4,1.1-1.1,1.3-1.8l3.9-14.1l14.1-3.9
	c0.7-0.2,1.4-0.7,1.8-1.3l8-12.2l14.6,0.7c0.8,0,1.5-0.2,2.1-0.7l11.4-9.1L99,11.9c0.7,0.3,1.5,0.3,2.2,0l13.7-5.2l11.4,9.1
	c0.6,0.5,1.3,0.7,2.1,0.7l14.6-0.7l8,12.2c0.4,0.6,1.1,1.1,1.8,1.3l14.1,3.9l3.9,14.1c0.2,0.7,0.7,1.4,1.3,1.8l12.2,8l-0.7,14.6
	c0,0.8,0.2,1.5,0.7,2.1l9.1,11.4L188.4,99C188.1,99.7,188.1,100.5,188.4,101.2z"/>
<path class="st4_tz_like" d="M152.2,47.9c0.8,0.8,1.5,1.5,2.2,2.3c0.6,0.7,1.5,1,2.3,1c0.8,0,1.5-0.3,2.1-0.8c1.3-1.2,1.4-3.2,0.2-4.4
	c-0.8-0.8-1.6-1.7-2.4-2.5c-0.8-0.8-1.7-1.6-2.5-2.4c-1.3-1.2-3.3-1.1-4.4,0.2c-1.2,1.3-1.1,3.3,0.2,4.4
	C150.7,46.4,151.4,47.2,152.2,47.9z"/>
<path class="st4_tz_like" d="M143.5,37.3c-1,1.1-2.8,1.2-4.1,0.4c-13.9-8.8-30.6-12.7-47.1-11C75.6,28.4,59.8,36,47.8,47.9
	C34.7,61,27,78.5,26.3,97.1c-0.3,7.5,0.5,14.9,2.4,22c0.1,0.4-0.1,0.9-0.4,1.1c-1.2,0.8-2.4,1.7-3.5,2.6c-0.6,0.5-1.5,0.2-1.7-0.5
	c-2.4-8.2-3.4-16.8-3.1-25.6c0.8-20.1,9.1-39.1,23.4-53.4c13-13,30.1-21.1,48.3-23c17.9-1.9,36.1,2.4,51.2,12.1
	C144.6,33.5,145,35.9,143.5,37.3z"/>
<path class="st4_tz_like" d="M156.8,153.8c1,0,1.5,1.2,0.8,1.9c-0.3,0.3-0.7,0.7-1,1c-14.3,14.3-33.2,22.6-53.3,23.4c-1.1,0-2.2,0.1-3.3,0.1
	c-18.9,0-37-6.6-51.4-18.7c-1.3-1.1-1.5-3.1-0.4-4.4c1.1-1.3,3.1-1.5,4.4-0.4c14.1,11.8,32,18,50.5,17.2
	c17.7-0.7,34.4-7.7,47.3-19.7c0.2-0.2,0.5-0.3,0.7-0.3C152.9,153.8,155.1,153.8,156.8,153.8z"/>
<path class="st4_tz_like" d="M179.6,108.4c-0.4,4.1-1.2,8.1-2.2,12.1c-0.1,0.4-0.5,0.7-0.9,0.7c-1.3,0-2.9,0-4.6,0.1c-0.6,0-1.1-0.6-0.9-1.2
	c1.1-4,1.9-8.1,2.4-12.3c1.7-16.5-2.2-33.2-11-47.1c-0.8-1.3-0.7-3,0.4-4.1c1.5-1.4,3.8-1.1,4.8,0.6
	C177.2,72.2,181.5,90.4,179.6,108.4z"/>
<path class="st0_tz_like" d="M158.8,140.2c0.7,0,1.3,0.3,1.7,0.8v-9.5c-0.4,0.6-1,1-1.8,1h-4.8v0.3h4.1c1.2,0,2.1,0.9,2.1,2.1v2.7
	c0,1.2-0.9,2.1-2.1,2.1h-4.1v0.5H158.8z M36.7,132.2c-2.5,0-4.1,1.6-4.1,4.2c0,2.7,1.6,4.4,4.1,4.4c0.4,0,0.8,0,1.3-0.1h-0.5
	c-1.2,0-2.1-0.9-2.1-2.1v-2.4c0-1.2,0.9-2.1,2.1-2.1h2.8c-0.1-0.1-0.2-0.3-0.3-0.4C39.5,133,38.3,132.2,36.7,132.2z M107,137.4
	l-0.2-0.7l-0.2,0.7H107z M72.3,137.4l-0.2-0.7l-0.2,0.7H72.3z M46.5,134.4c0.2,0.2,0.5,0.4,0.6,0.6v-1.5c-0.1,0.1-0.1,0.3-0.2,0.4
	C46.7,134.2,46.6,134.3,46.5,134.4z M89.9,134.4c0.4,0,0.7-0.4,0.7-1s-0.3-1-0.7-1h-1.5v2H89.9z"/>
<path class="st4_tz_like" d="M45.9,136.2v3.1v5.9c0,0.4-0.2,0.7-0.7,0.7h-2.7c-0.4,0-0.7-0.2-0.7-0.7v-1.5c-1.3,1.7-3.2,2.6-5.7,2.6
	c-5.2,0-9.2-4.2-9.2-9.8c0-5.5,4.1-9.8,9.8-9.8c4.3,0,7.9,2.6,9,6.1c0.2,0.5-0.1,0.8-0.6,0.8H42c-0.4,0-0.6-0.2-0.8-0.5
	c-0.8-1.2-2.5-2.2-4.5-2.2c-3.3,0-5.5,2.2-5.5,5.6c0,3.6,2.3,5.9,5.5,5.9c2,0,4-0.8,4.8-3h-4c-0.4,0-0.7-0.2-0.7-0.7v-2.4
	c0-0.4,0.2-0.7,0.7-0.7h7.8C45.7,135.5,45.9,135.7,45.9,136.2z M48.5,140v-12.3c0-0.4,0.2-0.7,0.7-0.7h3c0.4,0,0.7,0.2,0.7,0.7v12
	c0,1.4,0.7,2.4,2.7,2.4s2.7-0.9,2.7-2.4v-12c0-0.4,0.2-0.7,0.7-0.7h3c0.4,0,0.7,0.2,0.7,0.7V140c0,4-3.1,6.2-7,6.2
	S48.5,144,48.5,140z M80.2,145.8h-3.3c-0.4,0-0.6-0.2-0.8-0.6l-0.7-2.4h-6.6l-0.7,2.4c-0.1,0.4-0.4,0.6-0.8,0.6h-3.3
	c-0.5,0-0.7-0.3-0.6-0.8l5.7-17.5c0.1-0.4,0.4-0.6,0.8-0.6h4.3c0.4,0,0.7,0.2,0.8,0.6l5.7,17.5C80.9,145.5,80.7,145.8,80.2,145.8z
	 M74.2,138.8l-2.1-7.1l-2.1,7.1H74.2z M97.4,145.8H94c-0.3,0-0.6-0.1-0.8-0.4l-4.6-5.8h-1.7v5.5c0,0.4-0.2,0.7-0.7,0.7h-3
	c-0.4,0-0.7-0.2-0.7-0.7v-17.5c0-0.4,0.2-0.7,0.7-0.7h3.6h3c3.6,0,6.4,2.9,6.4,6.4c0,2.3-1.3,4.3-3.3,5.4l4.8,6.1
	C98.2,145.4,98,145.8,97.4,145.8z M86.9,135.8h3c1.2,0,2.2-1,2.2-2.4s-1-2.4-2.2-2.4h-3V135.8z M114.8,145.8h-3.3
	c-0.4,0-0.6-0.2-0.8-0.6l-0.7-2.4h-6.6l-0.7,2.4c-0.1,0.4-0.4,0.6-0.8,0.6h-3.3c-0.5,0-0.7-0.3-0.6-0.8l5.7-17.5
	c0.1-0.4,0.4-0.6,0.8-0.6h4.3c0.4,0,0.7,0.2,0.8,0.6l5.7,17.5C115.6,145.5,115.3,145.8,114.8,145.8z M108.9,138.8l-2.1-7.1l-2.1,7.1
	H108.9z M127.9,127h3c0.4,0,0.7,0.2,0.7,0.7v17.5c0,0.4-0.2,0.7-0.7,0.7h-2c-0.3,0-0.6-0.1-0.8-0.4l-6.4-10v9.8
	c0,0.4-0.2,0.7-0.7,0.7h-3c-0.4,0-0.7-0.2-0.7-0.7v-17.5c0-0.4,0.2-0.7,0.7-0.7h2c0.3,0,0.6,0.1,0.8,0.4l6.4,10v-9.8
	C127.2,127.2,127.4,127,127.9,127z M146.3,127.6v2.8c0,0.4-0.2,0.7-0.7,0.7H142v14c0,0.4-0.2,0.7-0.7,0.7h-3c-0.4,0-0.7-0.2-0.7-0.7
	v-14H134c-0.4,0-0.7-0.2-0.7-0.7v-2.8c0-0.4,0.2-0.7,0.7-0.7h7.9h3.6C146,127,146.3,127.2,146.3,127.6z M159.4,142.3v2.8
	c0,0.4-0.2,0.7-0.7,0.7h-9.3h-0.7c-0.4,0-0.7-0.2-0.7-0.7v-17.5c0-0.4,0.2-0.7,0.7-0.7h3.6h6.2c0.4,0,0.7,0.2,0.7,0.7v2.8
	c0,0.4-0.2,0.7-0.7,0.7h-6.2v3.1h5.5c0.4,0,0.7,0.2,0.7,0.7v2.7c0,0.4-0.2,0.7-0.7,0.7h-5.5v3.4h6.3
	C159.2,141.6,159.4,141.9,159.4,142.3z M173.1,142.3v2.8c0,0.4-0.2,0.7-0.7,0.7h-9.3h-0.7c-0.4,0-0.7-0.2-0.7-0.7v-17.5
	c0-0.4,0.2-0.7,0.7-0.7h3.6h6.2c0.4,0,0.7,0.2,0.7,0.7v2.8c0,0.4-0.2,0.7-0.7,0.7h-6.2v3.1h5.5c0.4,0,0.7,0.2,0.7,0.7v2.7
	c0,0.4-0.2,0.7-0.7,0.7h-5.5v3.4h6.3C172.9,141.6,173.1,141.9,173.1,142.3z"/>
</svg>
